<?xml version="1.0" encoding="UTF-8"?>
<svg
    width="44px"
    height="55px"
    viewBox="0 0 44 55"
    version="1.1"
    xmlns="http://www.w3.org/2000/svg"
    xmlns:xlink="http://www.w3.org/1999/xlink"
>
    <defs>
        <path d="M17,44 C28.3333333,32.2592272 34,23.2592272 34,17 C34,7.61115925 26.3888407,0 17,0 C7.61115925,0 0,7.61115925 0,17 C0,23.2592272 5.66666667,32.2592272 17,44 Z" id="path-1"></path>
        <filter x="-23.5%" y="-13.6%" width="147.1%" height="137.4%" filterUnits="objectBoundingBox" id="filter-2">
            <feMorphology radius="1" operator="dilate" in="SourceAlpha" result="shadowSpreadOuter1"></feMorphology>
            <feOffset dx="0" dy="2" in="shadowSpreadOuter1" result="shadowOffsetOuter1"></feOffset>
            <feGaussianBlur stdDeviation="2" in="shadowOffsetOuter1" result="shadowBlurOuter1"></feGaussianBlur>
            <feComposite in="shadowBlurOuter1" in2="SourceAlpha" operator="out" result="shadowBlurOuter1"></feComposite>
            <feColorMatrix values="0 0 0 0 0   0 0 0 0 0   0 0 0 0 0  0 0 0 0.299003975 0" type="matrix" in="shadowBlurOuter1"></feColorMatrix>
        </filter>
    </defs>
    <g stroke="none" stroke-width="1" fill="none" fill-rule="evenodd">
        <g transform="translate(-395.000000, -4447.000000)">
            <g transform="translate(0.000000, 4319.000000)">
                <g transform="translate(400.000000, 131.000000)">
                    <g>
                        <use fill="black" fill-opacity="1" filter="url(#filter-2)" xlink:href="#path-1"></use>
                        <use stroke="#FFFFFF" stroke-width="2" fill="#7FB0B1" fill-rule="evenodd" xlink:href="#path-1"></use>
                    </g>
                    <g id="building-silhouette" transform="translate(9.000000, 8.000000)" fill="#FFFFFF" fill-rule="nonzero">
                        <path d="M14.8285926,0 L0.435596986,0 C0.19514745,0 0,0.19514745 0,0.435596986 L0,19.564403 C0,19.8048526 0.19514745,20 0.435596986,20 L4.65544278,20 C4.89589232,20 5.09103977,19.8048526 5.09103977,19.564403 L5.09103977,16.0983578 L10.172932,16.0983578 L10.172932,19.564403 C10.172932,19.8048526 10.3680795,20 10.608529,20 L14.8283748,20 C15.0688243,20 15.263972,19.8048526 15.263972,19.564403 L15.263972,0.435596986 C15.2641896,0.194929651 15.0688243,0 14.8285926,0 Z M4.81879165,12.8494577 C4.81879165,13.0300126 4.67264887,13.1761554 4.49209391,13.1761554 L2.54998475,13.1761554 C2.3694298,13.1761554 2.22328701,13.0300126 2.22328701,12.8494577 L2.22328701,10.9073485 C2.22328701,10.7267936 2.3694298,10.5806508 2.54998475,10.5806508 L4.49209391,10.5806508 C4.67264887,10.5806508 4.81879165,10.7267936 4.81879165,10.9073485 L4.81879165,12.8494577 Z M4.81879165,8.73851113 C4.81879165,8.91906608 4.67264887,9.06520887 4.49209391,9.06520887 L2.54998475,9.06520887 C2.3694298,9.06520887 2.22328701,8.91906608 2.22328701,8.73851113 L2.22328701,6.79640197 C2.22328701,6.61584702 2.3694298,6.46970423 2.54998475,6.46970423 L4.49209391,6.46970423 C4.67264887,6.46970423 4.81879165,6.61584702 4.81879165,6.79640197 L4.81879165,8.73851113 Z M4.81879165,4.62756458 C4.81879165,4.80811953 4.67264887,4.95426232 4.49209391,4.95426232 L2.54998475,4.95426232 C2.3694298,4.95426232 2.22328701,4.80811953 2.22328701,4.62756458 L2.22328701,2.68545542 C2.22328701,2.50490047 2.3694298,2.35875768 2.54998475,2.35875768 L4.49209391,2.35875768 C4.67264887,2.35875768 4.81879165,2.50490047 4.81879165,2.68545542 L4.81879165,4.62756458 Z M8.92973821,12.8494577 C8.92973821,13.0300126 8.78359542,13.1761554 8.60304047,13.1761554 L6.66093131,13.1761554 C6.48037636,13.1761554 6.33423357,13.0300126 6.33423357,12.8494577 L6.33423357,10.9073485 C6.33423357,10.7267936 6.48037636,10.5806508 6.66093131,10.5806508 L8.60304047,10.5806508 C8.78359542,10.5806508 8.92973821,10.7267936 8.92973821,10.9073485 L8.92973821,12.8494577 Z M8.92973821,8.73851113 C8.92973821,8.91906608 8.78359542,9.06520887 8.60304047,9.06520887 L6.66093131,9.06520887 C6.48037636,9.06520887 6.33423357,8.91906608 6.33423357,8.73851113 L6.33423357,6.79640197 C6.33423357,6.61584702 6.48037636,6.46970423 6.66093131,6.46970423 L8.60304047,6.46970423 C8.78359542,6.46970423 8.92973821,6.61584702 8.92973821,6.79640197 L8.92973821,8.73851113 Z M8.92973821,4.62756458 C8.92973821,4.80811953 8.78359542,4.95426232 8.60304047,4.95426232 L6.66093131,4.95426232 C6.48037636,4.95426232 6.33423357,4.80811953 6.33423357,4.62756458 L6.33423357,2.68545542 C6.33423357,2.50490047 6.48037636,2.35875768 6.66093131,2.35875768 L8.60304047,2.35875768 C8.78359542,2.35875768 8.92973821,2.50490047 8.92973821,2.68545542 L8.92973821,4.62756458 Z M13.0406848,12.8494577 C13.0406848,13.0300126 12.894542,13.1761554 12.713987,13.1761554 L10.7718779,13.1761554 C10.5913229,13.1761554 10.4451801,13.0300126 10.4451801,12.8494577 L10.4451801,10.9073485 C10.4451801,10.7267936 10.5913229,10.5806508 10.7718779,10.5806508 L12.713987,10.5806508 C12.894542,10.5806508 13.0406848,10.7267936 13.0406848,10.9073485 L13.0406848,12.8494577 Z M13.0406848,8.73851113 C13.0406848,8.91906608 12.894542,9.06520887 12.713987,9.06520887 L10.7718779,9.06520887 C10.5913229,9.06520887 10.4451801,8.91906608 10.4451801,8.73851113 L10.4451801,6.79640197 C10.4451801,6.61584702 10.5913229,6.46970423 10.7718779,6.46970423 L12.713987,6.46970423 C12.894542,6.46970423 13.0406848,6.61584702 13.0406848,6.79640197 L13.0406848,8.73851113 Z M13.0406848,4.62756458 C13.0406848,4.80811953 12.894542,4.95426232 12.713987,4.95426232 L10.7718779,4.95426232 C10.5913229,4.95426232 10.4451801,4.80811953 10.4451801,4.62756458 L10.4451801,2.68545542 C10.4451801,2.50490047 10.5913229,2.35875768 10.7718779,2.35875768 L12.713987,2.35875768 C12.894542,2.35875768 13.0406848,2.50490047 13.0406848,2.68545542 L13.0406848,4.62756458 Z" id="Shape"></path>
                    </g>
                </g>
            </g>
        </g>
    </g>
</svg>
